<svg xmlns="http://www.w3.org/2000/svg" data-name="Favourite Outline" viewBox="0 0 24 24" id="Favourite"><path fill="none" d="M0 0h24v24H0Z" opacity=".24"></path><path fill="#e46a7f" d="M11.994 20.696a1.407 1.407 0 0 1-.986-.41L4.08 13.359a5.712 5.712 0 0 1 7.926-8.226 5.715 5.715 0 0 1 7.918 8.241l-6.944 6.922a1.4 1.4 0 0 1-.986.4Zm-.284-1.68Zm-3.6-13.62a3.913 3.913 0 0 0-2.757 6.69L12 18.73l6.652-6.634a3.915 3.915 0 1 0-5.534-5.539l-1.112 1.116-1.12-1.12A3.9 3.9 0 0 0 8.11 5.396Z" data-name="Path 2729" class="color525863 svgShape"></path></svg>